<svg width="22" height="23" viewBox="0 0 22 23" fill="none" xmlns="http://www.w3.org/2000/svg">
<path d="M16.5 7V4" stroke="black" stroke-linecap="round" stroke-linejoin="round"/>
<path d="M18 5.5H15" stroke="black" stroke-linecap="round" stroke-linejoin="round"/>
<path d="M13.5 1.5V3.5" stroke="black" stroke-linecap="round" stroke-linejoin="round"/>
<path d="M14.5 2.5H12.5" stroke="black" stroke-linecap="round" stroke-linejoin="round"/>
<g filter="url(#filter0_d_1604_106)">
<path d="M16.5436 9.53755C15.562 9.81283 14.5247 9.82185 13.5384 9.56369C12.5521 9.30553 11.6523 8.78949 10.9314 8.06857C10.2105 7.34765 9.69442 6.44783 9.43626 5.46152C9.1781 4.47522 9.18712 3.43797 9.46239 2.4563C8.49456 2.72568 7.61419 3.24394 6.90898 3.95944C6.20377 4.67495 5.69833 5.56274 5.44301 6.53438C5.18769 7.50602 5.19139 8.52759 5.45375 9.49736C5.71611 10.4671 6.22797 11.3512 6.93835 12.0616C7.64872 12.772 8.53282 13.2838 9.50259 13.5462C10.4723 13.8086 11.4939 13.8123 12.4656 13.5569C13.4372 13.3016 14.325 12.7962 15.0405 12.091C15.756 11.3858 16.2743 10.5054 16.5436 9.53755Z" fill="#D9D9D9"/>
<path d="M16.5436 9.53755C15.562 9.81283 14.5247 9.82185 13.5384 9.56369C12.5521 9.30553 11.6523 8.78949 10.9314 8.06857C10.2105 7.34765 9.69442 6.44783 9.43626 5.46152C9.1781 4.47522 9.18712 3.43797 9.46239 2.4563C8.49456 2.72568 7.61419 3.24394 6.90898 3.95944C6.20377 4.67495 5.69833 5.56274 5.44301 6.53438C5.18769 7.50602 5.19139 8.52759 5.45375 9.49736C5.71611 10.4671 6.22797 11.3512 6.93835 12.0616C7.64872 12.772 8.53282 13.2838 9.50259 13.5462C10.4723 13.8086 11.4939 13.8123 12.4656 13.5569C13.4372 13.3016 14.325 12.7962 15.0405 12.091C15.756 11.3858 16.2743 10.5054 16.5436 9.53755Z" stroke="black" stroke-linecap="round" stroke-linejoin="round"/>
</g>
<defs>
<filter id="filter0_d_1604_106" x="0.754211" y="1.9563" width="20.2894" height="20.2896" filterUnits="userSpaceOnUse" color-interpolation-filters="sRGB">
<feFlood flood-opacity="0" result="BackgroundImageFix"/>
<feColorMatrix in="SourceAlpha" type="matrix" values="0 0 0 0 0 0 0 0 0 0 0 0 0 0 0 0 0 0 127 0" result="hardAlpha"/>
<feOffset dy="4"/>
<feGaussianBlur stdDeviation="2"/>
<feComposite in2="hardAlpha" operator="out"/>
<feColorMatrix type="matrix" values="0 0 0 0 0 0 0 0 0 0 0 0 0 0 0 0 0 0 0.25 0"/>
<feBlend mode="normal" in2="BackgroundImageFix" result="effect1_dropShadow_1604_106"/>
<feBlend mode="normal" in="SourceGraphic" in2="effect1_dropShadow_1604_106" result="shape"/>
</filter>
</defs>
</svg>